<?xml version="1.0" encoding="UTF-8"?>
<!DOCTYPE svg PUBLIC "-//W3C//DTD SVG 1.1//EN" "http://www.w3.org/Graphics/SVG/1.1/DTD/svg11.dtd">
<svg version="1.1" xmlns="http://www.w3.org/2000/svg" xmlns:xlink="http://www.w3.org/1999/xlink" x="0" y="0" width="129.67" height="142.147" viewBox="0, 0, 129.67, 142.147">
  <g id="positions" transform="translate(-7.062, -1.853)">
    <path d="M72.5,85.428 L72.5,118.691" fill-opacity="0" stroke="#000000" stroke-width="2" stroke-linecap="round"/>
    <path d="M118.699,72.647 L85.42,72.647" fill-opacity="0" stroke="#000000" stroke-width="2" stroke-linecap="round"/>
    <path d="M59.58,72.647 L26.355,72.647" fill-opacity="0" stroke="#000000" stroke-width="2" stroke-linecap="round"/>
    <path d="M22.082,22.972 L62.955,63.846" fill-opacity="0" stroke="#000000" stroke-width="2" stroke-linecap="round"/>
    <path d="M122.749,22.804 L81.876,63.677" fill-opacity="0" stroke="#000000" stroke-width="2" stroke-linecap="round"/>
    <path d="M72.5,26.355 L72.5,59.572" fill-opacity="0" stroke="#000000" stroke-width="2" stroke-linecap="round"/>
    <text transform="matrix(1, 0, 0, 1, 72, 72)">
      <tspan x="-6.038" y="4.999" font-family="Georgia" font-size="18" fill="#000000">A</tspan>
    </text>
    <text transform="matrix(1, 0, 0, 1, 72, 131.999)">
      <tspan x="-5.884" y="4.999" font-family="Georgia" font-size="18" fill="#000000">B</tspan>
    </text>
    <text transform="matrix(1, 0, 0, 1, 71.996, 13.854)">
      <tspan x="-5.88" y="4.999" font-family="Georgia" font-size="18" fill="#000000">E</tspan>
    </text>
    <text transform="matrix(1, 0, 0, 1, 13.803, 72)">
      <tspan x="-5.779" y="4.999" font-family="Georgia" font-size="18" fill="#000000">C</tspan>
    </text>
    <text transform="matrix(1, 0, 0, 1, 129.991, 72)">
      <tspan x="-6.741" y="4.999" font-family="Georgia" font-size="18" fill="#000000">D</tspan>
    </text>
    <text transform="matrix(1, 0, 0, 1, 13.588, 13.854)">
      <tspan x="-6.526" y="4.999" font-family="Georgia" font-size="18" fill="#000000">G</tspan>
    </text>
    <text transform="matrix(1, 0, 0, 1, 128.857, 13.854)">
      <tspan x="-5.392" y="4.999" font-family="Georgia" font-size="18" fill="#000000">F</tspan>
    </text>
  </g>
</svg>
